<?xml version="1.0" encoding="UTF-8"?>
<svg id="Layer_1" data-name="Layer 1" xmlns="http://www.w3.org/2000/svg" viewBox="0 0 419.53 111.82">
  <defs>
    <style>
      .cls-1 {
        fill: #00377b;
      }

      .cls-1, .cls-2 {
        stroke-width: 0px;
      }

      .cls-2 {
        fill: #d41f34;
      }
    </style>
  </defs>
  <g>
    <path class="cls-2" d="M104.01,55.91c0,8.19-2.52,15.79-6.83,22.07-2.28,3.33-5.07,6.29-8.25,8.77-.98.77-2,1.49-3.05,2.15-6.06,3.85-13.24,6.08-20.95,6.08-2.55,0-5.04-.24-7.45-.71.28-2.47,1.16-4.75,2.48-6.71,2.02-3,5.09-5.22,8.67-6.17.82-.11,1.64-.26,2.44-.43,2.7-.59,5.28-1.51,7.68-2.73,3.9-1.97,7.34-4.71,10.13-8.02,3.27-3.88,5.65-8.53,6.81-13.66-1.25,2.94-2.93,5.65-4.96,8.05-1.29,1.53-2.71,2.95-4.26,4.22-2.34,1.92-4.96,3.5-7.78,4.7-.2.09-.4.18-.61.26-1.72.68-3.59,1.05-5.55,1.05-5.23,0-9.84-2.65-12.56-6.68-1.07-1.59-1.85-3.38-2.25-5.32,2.47.74,5.09,1.14,7.8,1.14,8.49,0,16.07-3.92,21.02-10.04.89-1.11,1.7-2.28,2.42-3.52,2.27-3.96,3.58-8.55,3.58-13.44,0-.13,0-.27,0-.4-.01-1.05-.09-2.09-.22-3.11-.33-2.57-1.03-5.03-2.03-7.31,2.18,1.85,4.15,3.95,5.88,6.23,4.95,6.54,7.88,14.69,7.88,23.53ZM62.95,75.94c-2.54-1.5-4.7-3.57-6.29-6.05-1.52.92-2.95,1.97-4.28,3.14-1.53,1.34-2.93,2.84-4.17,4.46-.1.12-.19.25-.28.37,2.36,3.19,5.32,5.9,8.72,7.97,1.05-1.64,2.35-3.1,3.85-4.34,2.01-1.66,4.37-2.92,6.96-3.63-1.6-.44-3.12-1.1-4.51-1.92Z"/>
    <path class="cls-1" d="M25.85,55.91c0-8.19,2.52-15.79,6.83-22.07,2.28-3.33,5.07-6.29,8.25-8.77.98-.77,2-1.49,3.05-2.15,6.06-3.85,13.24-6.08,20.95-6.08,2.55,0,5.04.24,7.45.71-.28,2.47-1.16,4.75-2.48,6.71-2.02,3-5.09,5.22-8.67,6.17-.82.11-1.64.26-2.44.43-2.7.59-5.28,1.51-7.68,2.73-3.9,1.97-7.34,4.71-10.13,8.02-3.27,3.88-5.65,8.53-6.81,13.66,1.25-2.94,2.93-5.65,4.96-8.05,1.29-1.53,2.71-2.95,4.26-4.22,2.34-1.92,4.96-3.5,7.78-4.7.2-.09.4-.18.61-.26,1.72-.68,3.59-1.05,5.55-1.05,5.23,0,9.84,2.65,12.56,6.68,1.07,1.59,1.85,3.38,2.25,5.32-2.47-.74-5.09-1.14-7.8-1.14-8.49,0-16.07,3.92-21.02,10.04-.89,1.11-1.7,2.28-2.42,3.52-2.27,3.96-3.58,8.55-3.58,13.44,0,.13,0,.27,0,.4.01,1.05.09,2.09.22,3.11.33,2.57,1.03,5.03,2.03,7.31-2.18-1.85-4.15-3.95-5.88-6.23-4.95-6.54-7.88-14.69-7.88-23.53ZM66.92,35.88c2.54,1.5,4.7,3.57,6.29,6.05,1.52-.92,2.95-1.97,4.28-3.14,1.53-1.34,2.93-2.84,4.17-4.46.1-.12.19-.25.28-.37-2.36-3.19-5.32-5.9-8.72-7.97-1.05,1.64-2.35,3.1-3.85,4.34-2.01,1.66-4.37,2.92-6.96,3.63,1.6.44,3.12,1.1,4.51,1.92Z"/>
  </g>
  <path class="cls-1" d="M145.82,55.64c0,5.19-1.48,9.16-4.43,11.92-2.95,2.76-7.22,4.14-12.79,4.14h-8.92v-31.51h9.89c5.14,0,9.14,1.36,11.98,4.07,2.84,2.72,4.27,6.51,4.27,11.38ZM138.88,55.81c0-6.77-2.99-10.15-8.97-10.15h-3.56v20.52h2.87c6.44,0,9.65-3.46,9.65-10.37ZM167.13,71.69l-.88-3.08h-.34c-.7,1.12-1.7,1.99-3,2.6-1.29.61-2.77.92-4.42.92-2.83,0-4.96-.76-6.4-2.27-1.44-1.52-2.15-3.7-2.15-6.54v-15.71h6.57v14.07c0,1.74.31,3.04.93,3.91.62.87,1.6,1.3,2.95,1.3,1.84,0,3.17-.61,3.99-1.84.82-1.23,1.23-3.26,1.23-6.11v-11.34h6.57v24.09h-5.04ZM153.64,41.41c0-.93.27-1.65.81-2.15.54-.5,1.27-.75,2.19-.75s1.69.27,2.23.8c.54.53.81,1.24.81,2.11s-.27,1.56-.82,2.08c-.55.52-1.29.79-2.22.79s-1.65-.25-2.19-.75c-.54-.5-.81-1.21-.81-2.11ZM162.33,41.41c0-1.01.29-1.74.87-2.21.58-.47,1.3-.7,2.17-.7.93,0,1.68.26,2.23.78s.83,1.23.83,2.13-.28,1.57-.84,2.09c-.56.52-1.3.78-2.22.78-.86,0-1.58-.23-2.17-.7-.58-.47-.87-1.19-.87-2.17ZM199.55,71.69h-6.57v-14.07c0-1.74-.31-3.04-.93-3.91-.62-.87-1.6-1.3-2.95-1.3-1.84,0-3.17.61-3.99,1.84s-1.23,3.26-1.23,6.11v11.34h-6.57v-24.09h5.02l.88,3.08h.37c.73-1.16,1.74-2.04,3.03-2.64,1.29-.6,2.75-.89,4.39-.89,2.8,0,4.93.76,6.38,2.27,1.45,1.52,2.18,3.7,2.18,6.56v15.71ZM200.92,47.65h7.2l4.55,12.74c.39,1.11.65,2.42.8,3.93h.13c.16-1.39.47-2.7.93-3.93l4.46-12.74h7.05l-10.19,25.54c-.93,2.36-2.27,4.13-4,5.31-1.73,1.17-3.75,1.76-6.07,1.76-1.13,0-2.25-.11-3.34-.34v-4.9c.79.18,1.65.26,2.59.26,1.16,0,2.18-.33,3.05-1s1.55-1.68,2.04-3.03l.39-1.11-9.57-22.49ZM239.75,55.64c0-2.44-1.25-3.66-3.75-3.66-1.93,0-4.19.58-6.79,1.75l-2.18-4.44c2.77-1.45,5.85-2.18,9.22-2.18s5.71.7,7.43,2.11c1.72,1.41,2.59,3.55,2.59,6.42v16.05h-4.59l-1.27-3.28h-.17c-1.11,1.39-2.24,2.36-3.42,2.9-1.17.54-2.7.81-4.58.81-2.31,0-4.13-.66-5.46-1.98-1.33-1.32-1.99-3.2-1.99-5.65s.89-4.44,2.68-5.66c1.79-1.21,4.49-1.89,8.09-2.01l4.18-.13v-1.06M239.75,60.53l-2.54.09c-1.91.06-3.33.4-4.27,1.03-.93.63-1.4,1.59-1.4,2.89,0,1.85,1.06,2.78,3.19,2.78,1.52,0,2.74-.44,3.65-1.31.91-.88,1.37-2.04,1.37-3.49v-1.98ZM281.71,71.69h-7.59l-8.25-13.27-2.82,2.03v11.25h-6.68v-31.51h6.68v14.42l2.63-3.71,8.53-10.71h7.41l-10.99,13.94,11.08,17.56ZM297.81,71.69l-1.27-3.28h-.17c-1.11,1.39-2.24,2.36-3.42,2.9-1.17.54-2.7.81-4.58.81-2.31,0-4.13-.66-5.46-1.98-1.33-1.32-1.99-3.2-1.99-5.65s.89-4.44,2.68-5.66c1.79-1.21,4.49-1.89,8.09-2.01l4.18-.13v-1.06c0-2.44-1.25-3.66-3.75-3.66-1.93,0-4.19.58-6.79,1.75l-2.18-4.44c2.77-1.45,5.85-2.18,9.22-2.18s5.71.7,7.43,2.11c1.72,1.41,2.59,3.55,2.59,6.42v16.05h-4.59ZM295.87,60.53l-2.54.09c-1.91.06-3.33.4-4.27,1.03-.93.63-1.4,1.59-1.4,2.89,0,1.85,1.06,2.78,3.19,2.78,1.52,0,2.74-.44,3.65-1.31.91-.88,1.37-2.04,1.37-3.49v-1.98ZM316.67,66.89c1.15,0,2.53-.25,4.14-.75v4.89c-1.64.73-3.65,1.1-6.03,1.1-2.63,0-4.54-.66-5.74-1.99-1.2-1.33-1.8-3.32-1.8-5.98v-11.62h-3.15v-2.78l3.62-2.2,1.9-5.09h4.2v5.13h6.75v4.93h-6.75v11.62c0,.93.26,1.62.79,2.07.52.45,1.22.67,2.08.67ZM330.49,71.69h-6.57v-24.09h6.57v24.09ZM341.31,71.69h-6.57v-29.17h6.57v29.17ZM352.17,71.69h-6.57v-24.09h6.57v24.09ZM378.65,71.69h-6.57v-14.07c0-1.74-.29-3.04-.87-3.91-.58-.87-1.5-1.3-2.75-1.3-1.68,0-2.9.62-3.66,1.85-.76,1.24-1.14,3.27-1.14,6.1v11.34h-6.57v-24.09h5.02l.88,3.08h.37c.65-1.11,1.58-1.97,2.8-2.6,1.22-.63,2.62-.94,4.2-.94,3.61,0,6.05,1.18,7.33,3.53h.58c.65-1.12,1.6-1.99,2.86-2.61,1.26-.62,2.68-.93,4.26-.93,2.73,0,4.8.7,6.2,2.1,1.4,1.4,2.1,3.65,2.1,6.73v15.71h-6.59v-14.07c0-1.74-.29-3.04-.87-3.91-.58-.87-1.5-1.3-2.75-1.3-1.61,0-2.81.57-3.61,1.72-.8,1.15-1.2,2.97-1.2,5.47v12.09Z"/>
</svg>