<?xml version="1.0" encoding="utf-8"?>
<!-- Generator: Adobe Illustrator 27.1.1, SVG Export Plug-In . SVG Version: 6.00 Build 0)  -->
<svg version="1.1" id="Layer_1" xmlns="http://www.w3.org/2000/svg" xmlns:xlink="http://www.w3.org/1999/xlink" x="0px" y="0px"
	 viewBox="0 0 110 30" style="enable-background:new 0 0 110 30;" xml:space="preserve">
<style type="text/css">
	.st0{fill:#00C4B3;}
	.st1{fill:#231F20;}
</style>
<g>
	<g>
		<g>
			<path class="st0" d="M94.2,19.8C94.2,19.8,94.1,19.9,94.2,19.8C94.1,19.9,94,19.9,94,20c0,0-0.1,0.1-0.1,0.1c0,0-0.1,0.1-0.1,0.1
				c-0.2,0.3-0.3,0.6-0.4,1c0,0.4,0,0.7,0.1,1.2c0.1,0.4,0.3,0.8,0.5,1.2c0.2,0.4,0.5,0.8,0.9,1.2l2.6,2.8l1.9-1.5
				c0.3-0.2,0.5-0.5,0.6-0.9c0.1-0.4,0.1-0.8,0.1-1.3c-0.1-0.5-0.2-1-0.5-1.4c-0.3-0.5-0.6-1-1-1.4c0,0-0.1-0.1-0.1-0.1
				c0,0-0.1-0.1-0.1-0.1c0,0-0.1-0.1-0.1-0.1s-0.1-0.1-0.1-0.1l-1.6,1.6L94.2,19.8"/>
			<path class="st0" d="M92.4,2.5l-1.7,4.1c-0.2,0.5-0.3,1.1-0.3,1.6c0,0.6,0,1.1,0.2,1.7c0.1,0.5,0.3,1.1,0.6,1.6
				c0.3,0.5,0.6,1,1,1.4c0,0,0.1,0.1,0.1,0.1c0,0,0.1,0.1,0.1,0.1c0,0,0.1,0.1,0.1,0.1c0,0,0.1,0.1,0.1,0.1l1.4-2.5l2.6,2.5
				c0,0,0.1-0.1,0.1-0.1c0,0,0.1-0.1,0.1-0.1c0,0,0.1-0.1,0.1-0.1c0,0,0.1-0.1,0.1-0.1c0.3-0.5,0.5-1,0.6-1.6c0.1-0.6,0.1-1.3,0-1.9
				c-0.1-0.7-0.3-1.3-0.6-1.9c-0.3-0.6-0.7-1.2-1.2-1.7L92.4,2.5"/>
			<path class="st0" d="M89.3,12.8c-0.2,0-0.3,0-0.5,0.1c-0.1,0-0.3,0.1-0.4,0.2c-0.1,0.1-0.2,0.2-0.3,0.3c-0.1,0.1-0.2,0.3-0.2,0.4
				L87,16.1l2.2,2.4c0.2,0.2,0.3,0.3,0.5,0.5c0.2,0.1,0.3,0.3,0.5,0.4c0.2,0.1,0.3,0.2,0.5,0.3c0.2,0.1,0.3,0.1,0.5,0.1
				c0.2,0,0.3,0,0.5,0c0.1,0,0.3,0,0.4-0.1c0.1,0,0.3-0.1,0.4-0.2c0.1-0.1,0.2-0.2,0.3-0.3c0,0,0-0.1,0.1-0.1c0,0,0-0.1,0.1-0.1
				c0,0,0-0.1,0.1-0.1c0,0,0-0.1,0-0.1L91,16.5l1.1-2c0,0-0.1-0.1-0.1-0.1s-0.1-0.1-0.1-0.1c0,0-0.1-0.1-0.1-0.1
				c0,0-0.1-0.1-0.1-0.1c-0.2-0.2-0.4-0.4-0.6-0.5c-0.2-0.1-0.4-0.3-0.6-0.4c-0.2-0.1-0.4-0.2-0.6-0.2
				C89.7,12.8,89.5,12.8,89.3,12.8"/>
			<path class="st0" d="M101.3,12.8c-0.3,0-0.6,0-0.9,0.1c-0.3,0.1-0.5,0.1-0.8,0.3c-0.2,0.1-0.5,0.3-0.7,0.4
				c-0.2,0.2-0.4,0.4-0.6,0.6c0,0-0.1,0.1-0.1,0.1c0,0-0.1,0.1-0.1,0.2c0,0.1-0.1,0.1-0.1,0.2s-0.1,0.1-0.1,0.2l2.7,2.7l-2,2.1
				c0,0.1,0.1,0.1,0.1,0.2c0,0.1,0.1,0.1,0.1,0.2c0,0.1,0.1,0.1,0.1,0.2c0,0.1,0.1,0.1,0.1,0.2c0.2,0.2,0.5,0.4,0.7,0.6
				c0.3,0.2,0.5,0.4,0.8,0.5c0.3,0.1,0.6,0.3,0.8,0.4c0.3,0.1,0.6,0.2,0.9,0.2c0.3,0,0.6,0.1,0.8,0.1c0.3,0,0.6,0,0.8-0.1
				c0.3,0,0.5-0.1,0.8-0.2c0.3-0.1,0.5-0.2,0.7-0.4l3.8-2.9l-4.3-4c-0.3-0.3-0.6-0.5-0.9-0.7c-0.3-0.2-0.7-0.4-1-0.5
				c-0.3-0.1-0.7-0.2-1-0.3C101.9,12.8,101.6,12.8,101.3,12.8"/>
		</g>
	</g>
	<g>
		<path class="st1" d="M7.6,13.7H5.1L3.6,21H1.6L3,13.7H0.5l0.4-1.9h7L7.6,13.7z"/>
		<path class="st1" d="M6.4,19.3c0-0.3,0-0.6,0.1-0.9l0.7-3.4h2.1L8.7,18c0,0.2-0.1,0.4-0.1,0.6c0,0.7,0.4,0.9,0.8,0.9
			c0.7,0,1.2-0.5,1.4-1.6l0.6-2.9h2L12.3,21h-2l0.2-1h0c-0.5,0.8-1.1,1.2-2,1.2C7.4,21.2,6.4,20.7,6.4,19.3z M8.7,11.9h1.7L10,13.7
			H8.3L8.7,11.9z M11.2,11.9h1.7l-0.4,1.8h-1.7L11.2,11.9z"/>
		<path class="st1" d="M14.8,14.9h2l-0.3,1.2h0c0.4-1.1,1.4-1.4,2.2-1.4c0.2,0,0.2,0,0.3,0l-0.4,2.1c-0.1,0-0.1,0-0.3,0
			c-1.2,0-1.9,0.5-2.2,1.9L15.6,21h-2L14.8,14.9z"/>
		<path class="st1" d="M23.1,17.9l2.1,3.2h-2.5l-1.6-2.8L20.6,21h-2l1.8-9.2h2l-1.1,5.5l2.3-2.4h2.7L23.1,17.9z"/>
		<path class="st1" d="M26.6,14.9h2L27.4,21h-2L26.6,14.9z M28.9,13.8h-2.2l0.4-2h2.2L28.9,13.8z"/>
		<path class="st1" d="M36.3,14.9l-5.6,8.7h-2.2l2.2-3.4l-1.6-5.4h2.2l0.8,3.3l2.1-3.3L36.3,14.9L36.3,14.9z"/>
		<path class="st1" d="M42.1,18.5h-4.4c0.1,0.7,0.5,1.1,1.4,1.1c0.8,0,1.5-0.3,1.9-0.5l0.6,1.6c-0.8,0.4-1.6,0.7-2.7,0.7
			c-1.9,0-3.2-1.1-3.2-2.9c0-1.7,1.1-3.5,3.7-3.5c1.8,0,2.9,0.9,2.9,2.5C42.3,17.6,42.3,18,42.1,18.5z M40.3,17.1
			c0-0.6-0.4-0.9-1-0.9c-0.7,0-1.3,0.4-1.5,1.1h2.5C40.3,17.2,40.3,17.1,40.3,17.1z"/>
		<path class="st1" d="M49.7,13.7l-0.4,1.9h3.4l-0.4,1.9H49L48.3,21h-2.1l1.8-9.2h6l-0.4,1.9L49.7,13.7L49.7,13.7z"/>
		<path class="st1" d="M54.4,14.9h2L55.2,21h-2L54.4,14.9z M56.7,13.8h-2.2l0.4-2h2.2L56.7,13.8z"/>
		<path class="st1" d="M57.7,14.9h2l-0.2,0.9h0c0.6-0.7,1.2-1.1,2.1-1.1c1.2,0,2,0.6,2,2c0,0.3,0,0.7-0.1,1.2L62.9,21h-2l0.6-3
			c0.1-0.2,0.1-0.5,0.1-0.7c0-0.7-0.4-0.9-1-0.9c-0.7,0-1.2,0.4-1.4,1.6L58.6,21h-2L57.7,14.9z"/>
		<path class="st1" d="M64,18.4c0-2.1,1.4-3.6,3.3-3.6c1,0,1.8,0.4,2.2,1.3h0l0.2-1.1h2L70.5,21h-2l0.2-0.8h0c-0.5,0.6-1.2,1-2,1
			C65,21.2,64,20.1,64,18.4z M69,17.9c0-0.8-0.6-1.3-1.4-1.3c-0.9,0-1.5,0.7-1.5,1.6c0,0.8,0.6,1.3,1.4,1.3
			C68.4,19.4,69,18.7,69,17.9z"/>
		<path class="st1" d="M72.7,14.9h2l-0.2,0.9h0c0.6-0.7,1.2-1.1,2.1-1.1c1.2,0,2,0.6,2,2c0,0.3,0,0.7-0.1,1.2L77.8,21h-2l0.6-3
			c0.1-0.2,0.1-0.5,0.1-0.7c0-0.7-0.4-0.9-1-0.9c-0.7,0-1.2,0.4-1.4,1.6L73.5,21h-2L72.7,14.9z"/>
		<path class="st1" d="M81.5,19.6c0.3,0,0.4-0.1,0.4-0.3c0-0.2-0.1-0.2-0.4-0.4l-0.9-0.5c-0.8-0.4-1.2-0.9-1.2-1.8
			c0-1.2,0.8-2,2.4-2c0.9,0,1.8,0.2,2.7,0.7l-0.7,1.5c-0.7-0.3-1.4-0.5-1.9-0.5c-0.3,0-0.4,0.1-0.4,0.2c0,0.2,0.1,0.2,0.4,0.4
			l0.8,0.4c0.8,0.4,1.2,0.8,1.2,1.7c0,1.4-1,2.1-2.5,2.1c-1.2,0-2.1-0.3-3-1l1-1.5C80.2,19.3,81,19.6,81.5,19.6z"/>
	</g>
</g>
</svg>
