<?xml version="1.0" encoding="utf-8"?>
<!-- Generator: Adobe Illustrator 27.1.1, SVG Export Plug-In . SVG Version: 6.00 Build 0)  -->
<svg version="1.1" id="Layer_1" xmlns="http://www.w3.org/2000/svg" xmlns:xlink="http://www.w3.org/1999/xlink" x="0px" y="0px"
	 viewBox="0 0 450 115" style="enable-background:new 0 0 450 115;" xml:space="preserve">
<style type="text/css">
	.st0{fill:#1E1E1B;}
</style>
<g>
	<path class="st0" d="M57.1,74.2c0,15.5-7.6,23.3-17.6,23.3c-11.7,0-17.6-8-17.6-23.6c0-15.6,8.9-22.4,17.9-22.4
		C51.7,51.5,57.1,59.5,57.1,74.2 M78,73.2C78,47,63.6,35,41.3,35C17.3,35,1,52.2,1,75.9c0,27.1,14.4,38.3,36.8,38.3
		C61.4,114.2,78,97.1,78,73.2 M134,73.1c0,13-6.3,24.9-16.9,24.9c-9.2,0-13.5-7.4-13.5-21.6c0-18.8,8.2-25.8,19.8-25.8
		c3.5,0,7,0.5,10.6,1.2L134,73.1z M136.3,112.7l18.1,0l0-111.9l-20.3,0l0,34.7c-3.5-0.5-6.6-0.6-10-0.6C98,35,82.5,52.7,82.5,78.4
		c0,21.7,9.5,35.8,28.6,35.8c12,0,20.7-6,24.8-14.4l0.3,0L136.3,112.7z M210.8,64.5l-28.9,0c1.1-9.2,6.9-15.1,15.3-15.1
		C205.7,49.4,211.1,55,210.8,64.5 M230.2,77.8c0.5-3.2,0.6-6.3,0.6-8.9c0-18.8-10.1-33.9-33.1-33.9c-23.6,0-36.9,17.1-36.9,40.4
		c0,26.8,13.9,38.9,38.9,38.9c9.8,0,19.8-1.7,28.1-4.9l-1.9-15.2c-6.8,3.1-15.2,4.8-22.9,4.8c-14.6,0-21.8-6.9-21.7-21.1L230.2,77.8
		z M281.7,80.8c0,9.2-6.8,18.4-16.8,18.4c-5.8,0-9.3-3.2-9.3-8.1c0-6.1,4.7-12.1,26.1-12.1L281.7,80.8z M284.1,112.7l17.9,0
		c0-1.5,0-15,0-15l0-36.3c0-16.6-7.1-26.4-32.4-26.4c-10.1,0-20.2,2-28.1,4.7l1.7,16.4c6.6-3.7,16.1-6,23.2-6
		c11.4,0,15.3,4.1,15.3,12.1l0,4.1c-26.7,0-45.4,9.6-45.4,27.8c0,12.2,8.2,20.1,22.4,20.1c11.7,0,21.4-6,25.1-14.6h0.2L284.1,112.7z
		"/>
</g>
</svg>
